<svg id="Layer_1" data-name="Layer 1" xmlns="http://www.w3.org/2000/svg" viewBox="0 0 566.93 575.43"><defs><style>.cls-1{fill:#fff;}</style></defs><path class="cls-1" d="M194.17,122.06c33.29.21,61,10.15,85.12,29.93,1.61,1.32,2.56,1.36,4.18,0,26.1-21.47,56.25-31.6,89.8-29.53C423.1,125.55,459.73,150,483.1,194c9.93,18.68,14.32,39,13.84,60.18-.79,35-13.35,65.24-38.16,90-6.38,6.37-13.93,11.58-21,17.28q-44.94,36.33-89.9,72.64-29.43,23.78-58.85,47.52c-4.82,3.88-10.52,3.85-15.36-.06Q228.14,444.82,182.62,408q-38-30.67-75.91-61.35c-8.4-6.8-14.56-15.52-20.32-24.49A125.65,125.65,0,0,1,66,248.53c1.32-38.86,17.19-70.83,46.71-95.94a125.58,125.58,0,0,1,68.84-29.71C186.43,122.34,191.34,122.23,194.17,122.06ZM281.4,459.13c5.88-4.73,11.58-9.31,17.27-13.9q62.91-50.85,125.79-101.69c6.28-5.07,12.9-9.8,18.67-15.4a99.47,99.47,0,0,0,28.38-50.67c8.05-36.41.29-69.28-24.78-97C420.14,151,386.44,140,347.43,146.21c-22.05,3.5-41,13.8-56.9,29.5-6.13,6-12.17,6-18.25.07-18.06-17.69-39.57-28.24-64.77-30.67-33-3.17-61.83,6.62-85.94,29.42a107.11,107.11,0,0,0-21.34,127.06c5.87,11.33,13.14,21.67,23,29.83,13.8,11.38,27.86,22.45,41.78,33.69q44.87,36.22,89.69,72.49Z"/><path class="cls-1" d="M414.36,101.69c-1.05.73-1.64,1.46-2.12,1.39s-1.16-.82-1.73-1.27c.47-.47.93-1.28,1.44-1.31S413.21,101.08,414.36,101.69Z"/></svg>