<svg id="Layer_1" data-name="Layer 1" xmlns="http://www.w3.org/2000/svg" viewBox="0 0 566.93 575.43"><defs><style>.cls-1{fill:#fff;}</style></defs><path class="cls-1" d="M438.72,69.28c.23,1.25.14,2.36-1.49,2.36s-1.73-1.11-1.5-2.36Z"/><path class="cls-1" d="M256.06,542h7.17l0,.38h-7.18Z"/><path d="M277.66,390.8c-1.14-1.7-2.06-2.95-2.87-4.27-16.44-26.4-33.16-52.63-49.13-79.31-6.29-10.5-7.53-22.48-5.64-34.71a58.17,58.17,0,0,1,50.32-49.21,58.29,58.29,0,0,1,60.4,33.45,57.49,57.49,0,0,1,4.72,32.78c-1.34,9.17-4.91,17.31-9.76,25l-46.14,73.57C279.08,388.89,278.52,389.6,277.66,390.8Zm.12-135.37a25.77,25.77,0,1,0,25.68,25.87A25.69,25.69,0,0,0,277.78,255.43Z"/></svg>